HIERARCHY
ROOT pelvis
{
  OFFSET 0 100 0
  CHANNELS 6 Xposition Yposition Zposition Zrotation Xrotation Yrotation
  JOINT pelvis_right_femur
  {
    OFFSET -10.78128 -3.44521 -0.5502486
    CHANNELS 3 Zrotation Xrotation Yrotation
    JOINT right_femur_tibia
    {
      OFFSET -0.8047443 -44.0398 -0.1307829
      CHANNELS 3 Zrotation Xrotation Yrotation
      JOINT right_tibia_foot
      {
        OFFSET 3.006224 -47.83518 -5
        CHANNELS 3 Zrotation Xrotation Yrotation
        End Site
        {
          OFFSET 0 -5 15
        }
      }
    }
  }
  JOINT pelvis_left_femur
  {
    OFFSET 10.78128 -3.44521 -0.5502486
    CHANNELS 3 Zrotation Xrotation Yrotation
    JOINT left_femur_tibia
    {
      OFFSET 0.8047443 -44.0398 -0.1307829
      CHANNELS 3 Zrotation Xrotation Yrotation
      JOINT left_tibia_foot
      {
        OFFSET -4.370144 -48.10324 -4.275266
        CHANNELS 3 Zrotation Xrotation Yrotation
        End Site
        {
          OFFSET 0 -5 15
        }
      }
    }
  }
  JOINT pelvis_spine1
  {
    OFFSET 0 6.468898 -3.129235
    CHANNELS 3 Zrotation Xrotation Yrotation
    JOINT spine1
    {
      OFFSET 0 23.15396 4.99043
      CHANNELS 3 Zrotation Xrotation Yrotation
      JOINT spine2
      {
        OFFSET 0 20.79997 -5.064912
        CHANNELS 3 Zrotation Xrotation Yrotation
        JOINT neck
        {
          OFFSET 0 14.38658 9.616178
          CHANNELS 3 Zrotation Xrotation Yrotation
          End Site
          {
            OFFSET 0 20 0
          }
        }
      }
      JOINT right_manubrium
      {
        OFFSET -5.722621 16.35077 3.967754
        CHANNELS 3 Zrotation Xrotation Yrotation
        JOINT right_clavicle
        {
          OFFSET -13.16364 1.694482 -4.693211
          CHANNELS 3 Zrotation Xrotation Yrotation
          JOINT right_humerus
          {
            OFFSET -28.5034 -0.3100689 -2.792744
            CHANNELS 3 Zrotation Xrotation Yrotation
            JOINT right_radius
            {
              OFFSET -25.15693 0.02248979 -1.271978
              CHANNELS 3 Zrotation Xrotation Yrotation
              End Site
              {
                OFFSET -15 0 0
              }
            }
          }
        }
      }
      JOINT left_manubrium
      {
        OFFSET 5.722621 16.35077 3.967754
        CHANNELS 3 Zrotation Xrotation Yrotation
        JOINT left_clavicle
        {
          OFFSET 13.16364 1.694482 -4.693211
          CHANNELS 3 Zrotation Xrotation Yrotation
          JOINT left_humerus
          {
            OFFSET 29.39168 -1.063119 -2.237045
            CHANNELS 3 Zrotation Xrotation Yrotation
            JOINT left_radius
            {
              OFFSET 24.59957 -0.9528479 0.9047498
              CHANNELS 3 Zrotation Xrotation Yrotation
              End Site
              {
                OFFSET 15 -0 -0
              }
            }
          }
        }
      }
    }
  }
}
MOTION
Frames: 9
Frame Time: 0.0416666666667
0 103.5113 0 1.304419 -1.017043 0.1159515 2.838865 -16.7223 7.82379 -0 36.26644 -0 -5.471853 -16.08813 -3.505851 -7.148846 12.09422 -23.17236 -0 4.311506 -0 6.378907 -18.42104 25.21084 -2.00397 -1.846261 4.756173 3.028712 8.705084 -8.198714 0.0972472 20.55106 8.852791 4.516946 -28.08054 9.701114 4.836451 -20.35398 12.82067 84.36909 34.01745 -16.16533 -0 0 18.3078 -11.39733 9.360865 5.579117 8.266164 -20.7378 3.132112 -95.39663 20.43358 23.31397 0 0 -7.483937 13.96442 15.99212 -6.6371
0.1711874 103.3221 1.531638 0.630315 -0.03569823 0.1354261 3.784077 -20.17106 8.155074 -0 36.06605 -0 -5.79584 -15.39558 -3.535549 -6.738888 12.35907 -23.30836 -0 4.719288 -0 5.121481 -19.87436 24.7798 -1.978547 -1.797713 4.678181 3.038683 8.797083 -8.269849 0.1077379 20.46348 8.899011 4.584566 -27.88556 9.633058 4.865563 -20.03347 12.8089 84.74664 34.09589 -16.69795 -0 0 17.63678 -11.55973 9.554058 5.698354 8.274626 -20.99958 2.849342 -94.8549 20.4602 22.55282 0 0 -8.785833 13.56734 15.57683 -6.019188
0.360943 102.7785 3.855686 -0.05983813 1.30519 0.1824854 5.324331 -27.10907 6.517791 -0 28.33053 -0 -6.896484 -11.37885 -2.016029 -6.515771 12.74697 -20.91075 -0 5.577581 -0 8.798145 -19.83883 24.42286 -2.09984 -1.825777 4.311999 3.457794 8.746142 -8.499308 0.1841718 20.35261 9.274769 4.824941 -28.52643 10.17468 5.334439 -19.54298 12.85593 85.12632 34.40546 -17.86551 -0 0 16.57961 -10.07521 9.473772 4.898254 8.416948 -21.1483 2.632305 -94.53016 20.72919 21.10345 0 0 -10.40481 14.29624 15.16215 -6.607619
0.5677653 102.2231 6.495725 -0.6903709 3.011155 0.339122 6.838889 -31.45485 7.486516 -0 25.81507 -0 -6.660745 -10.15155 -1.872412 -6.286611 12.70585 -20.47628 -0 6.54404 -0 9.260032 -20.62482 24.14799 -2.132285 -1.883219 4.221054 3.592378 8.825218 -8.57499 0.2744464 20.22191 9.337754 4.882798 -28.54274 10.34022 5.703613 -19.16068 12.76669 85.37254 34.89197 -18.70134 -0 0 15.81336 -9.223583 9.630999 4.62125 8.412207 -21.29849 2.246752 -94.04253 21.06035 20.1951 0 0 -12.26812 14.34953 14.59568 -6.082434
0.766464 101.4107 9.936932 -0.9147875 3.05073 0.6237215 7.09733 -33.59992 5.719455 -0 20.50559 -0 -7.261325 -6.610609 -1.001132 -6.110225 13.53337 -18.28544 -0 8.932623 -0 9.616152 -20.56307 22.60203 -2.152863 -1.876907 4.102449 3.664416 8.943334 -8.653564 0.3544756 20.10797 9.323671 4.855209 -28.34039 10.3781 5.852225 -18.80221 12.67091 85.82799 35.2249 -19.49633 -0 0 14.92667 -8.839608 9.808459 4.612592 8.318681 -21.49732 1.715649 -93.20014 21.19634 19.12302 0 0 -14.44885 14.18948 13.91156 -5.374333
0.9495881 100.5099 14.23532 -1.102763 2.860961 1.070023 7.049886 -34.57852 3.916776 -0 15.69445 -0 -7.558981 -3.107504 -0.5289495 -5.817014 14.59768 -16.00942 -0 12.15963 -0 7.929744 -20.79207 20.09187 -2.124526 -1.87568 4.053786 3.646045 9.106191 -8.709337 0.4398755 19.99645 9.196404 4.768927 -27.92674 10.27384 5.952478 -18.46602 12.53928 86.25118 35.48709 -20.19557 -0 0 14.15418 -8.750152 10.06786 4.738098 8.215869 -21.71743 1.182649 -92.36303 21.31455 18.23617 0 0 -16.43025 13.82131 13.29574 -4.404917
1.101535 99.66527 19.39491 -1.209047 2.359531 1.639751 6.835869 -34.08555 2.236078 -0 11.95243 -0 -7.677805 0.09745168 -0.4145675 -5.485883 15.72594 -13.71224 -0 16.48774 -0 5.174839 -20.43294 17.16232 -2.08543 -1.850505 3.99621 3.604426 9.264664 -8.772598 0.509749 19.89891 9.054659 4.67304 -27.45531 10.11745 5.980436 -18.14464 12.41876 86.68178 35.62098 -20.81637 -0 0 13.42397 -8.895357 10.33543 4.944997 8.120506 -21.94991 0.6843203 -91.51137 21.34679 17.36824 0 0 -18.21072 13.38672 12.73399 -3.466675
1.214613 99.06205 25.35278 -1.36862 1.76557 2.266725 6.779672 -32.45035 1.113748 -0 9.643673 -0 -7.533188 2.666587 -0.8183031 -4.996517 16.65121 -11.60118 -0 21.95211 -0 1.17758 -19.39609 13.84738 -2.019994 -1.829274 3.972787 3.530515 9.435879 -8.829596 0.5750884 19.81043 8.875914 4.572123 -26.93079 9.904233 6.000707 -17.84614 12.2998 87.04438 35.6585 -21.34783 -0 0 12.81397 -9.190496 10.63323 5.179443 8.04306 -22.18142 0.2482335 -90.78085 21.37158 16.66477 0 0 -19.63043 12.86798 12.28168 -2.489671
1.284781 98.87111 31.91841 -1.697469 1.196626 2.823404 7.109944 -29.92033 0.8754343 -0 9.351541 -0 -7.297317 4.015467 -1.706257 -4.274198 16.89766 -10.02315 -0 28.50055 -0 -3.40448 -17.32754 10.66827 -1.937198 -1.810003 3.978359 3.439586 9.608446 -8.878294 0.6306376 19.73458 8.684645 4.481861 -26.40418 9.659179 6.020692 -17.57918 12.19519 87.32279 35.60569 -21.77607 -0 0 12.33499 -9.592031 10.94157 5.41932 7.984945 -22.39833 -0.1089368 -90.20569 21.39411 16.13438 0 0 -20.65527 12.29929 11.94019 -1.535097
